<?xml version="1.0" standalone="no"?>
<!DOCTYPE svg PUBLIC "-//W3C//DTD SVG 20010904//EN" "http://www.w3.org/TR/2001/REC-SVG-20010904/DTD/svg10.dtd">
<svg xmlns="http://www.w3.org/2000/svg" version="1.0" width="60.000000pt" height="60.000000pt" viewBox="0 0 60.000000 60.000000" preserveAspectRatio="xMidYMid meet">
<metadata>
Created by potrace 1.16, written by Peter Selinger 2001-2019
<meta name="Producer" content="Online-Convert"/></metadata>
<g transform="translate(0.000000,60.000000) scale(0.100000,-0.100000)" fill="#000000" stroke="none">
<path d="M0 300 l0 -300 125 0 c69 0 125 3 125 8 -1 4 -9 46 -19 94 -9 49 -17 88 -16 88 1 0 16 -11 35 -25 33 -24 67 -34 56 -16 -3 5 10 21 29 35 l34 27 7 -26 c4 -15 3 -62 0 -106 l-7 -79 111 0 c98 0 111 2 106 16 -3 9 -9 34 -12 56 -7 39 -9 41 -93 80 -47 21 -91 46 -98 54 -10 14 -14 14 -37 -1 -33 -22 -58 -13 -90 33 -30 44 -36 109 -11 119 24 9 28 -2 15 -41 -14 -43 0 -76 33 -76 15 0 18 3 9 9 -14 8 -13 32 2 43 6 4 5 13 -3 22 -7 8 -10 24 -6 36 9 29 -2 55 -30 68 -28 13 -29 21 -15 73 21 77 101 70 134 -11 9 -22 16 -54 16 -70 0 -17 5 -30 10 -30 6 0 10 -12 11 -27 0 -16 3 -22 6 -15 11 29 103 3 148 -42 l25 -25 0 164 0 165 -300 0 -300 0 0 -300z"/>
</g>
</svg>
